<svg xmlns="http://www.w3.org/2000/svg" xmlns:xlink="http://www.w3.org/1999/xlink" width="200" zoomAndPan="magnify" viewBox="0 0 150 149.999998" height="200" preserveAspectRatio="xMidYMid meet" version="1.2"><defs><clipPath id="5f1517d303"><path d="M 5.8125 5.8125 L 144.5625 5.8125 L 144.5625 144.5625 L 5.8125 144.5625 Z M 5.8125 5.8125 "/></clipPath></defs><g id="8a7d71711b"><rect x="0" width="150" y="0" height="149.999998" style="fill:#ffffff;fill-opacity:1;stroke:none;"/><rect x="0" width="150" y="0" height="149.999998" style="fill:#ffffff;fill-opacity:1;stroke:none;"/><g clip-rule="nonzero" clip-path="url(#5f1517d303)"><path style=" stroke:none;fill-rule:nonzero;fill:#000000;fill-opacity:1;" d="M 75.1875 5.8125 C 36.867188 5.8125 5.8125 36.867188 5.8125 75.1875 C 5.8125 113.507812 36.867188 144.5625 75.1875 144.5625 C 113.507812 144.5625 144.5625 113.507812 144.5625 75.1875 C 144.503906 36.867188 113.449219 5.8125 75.1875 5.8125 Z M 115.671875 59.570312 C 115.671875 59.570312 116.871094 86.117188 96.691406 102.578125 C 66.476562 127.144531 33.863281 107.203125 33.863281 107.203125 C 33.863281 107.203125 41.789062 107.320312 48.820312 105.460938 C 55.785156 103.597656 60.832031 99.03125 60.832031 99.03125 C 60.832031 99.03125 53.203125 97.472656 49.238281 94.589844 C 45.273438 91.703125 43.714844 86.179688 43.714844 86.179688 C 43.714844 86.179688 46.355469 86.417969 47.976562 86.359375 C 49.660156 86.300781 51.640625 85.519531 51.640625 85.519531 C 51.640625 85.519531 46.175781 84.859375 41.070312 79.152344 C 37.046875 74.648438 37.347656 67.136719 37.347656 67.136719 C 37.347656 67.136719 39.75 68.578125 41.011719 68.878906 C 42.273438 69.242188 44.734375 69.242188 44.734375 69.242188 C 44.734375 69.242188 39.929688 66.417969 37.828125 59.03125 C 35.722656 51.703125 39.75 44.253906 39.75 44.253906 C 39.75 44.253906 46.898438 52.902344 57.46875 58.429688 C 68.039062 63.953125 78.011719 63.773438 78.011719 63.773438 C 78.011719 63.773438 76.570312 59.390625 79.089844 52.902344 C 81.613281 46.414062 87.320312 41.730469 96.03125 41.070312 C 104.738281 40.347656 110.324219 46.957031 110.324219 46.957031 C 110.324219 46.957031 113.027344 46.476562 116.089844 45.335938 C 119.15625 44.253906 122.21875 42.8125 122.21875 42.8125 C 122.21875 42.8125 121.136719 46.117188 119.035156 48.699219 C 116.933594 51.28125 114.589844 52.84375 114.589844 52.84375 C 114.589844 52.84375 117.351562 52.664062 120.117188 51.882812 C 122.878906 51.101562 124.378906 50.320312 124.378906 50.320312 C 121.195312 55.605469 115.671875 59.570312 115.671875 59.570312 Z M 115.671875 59.570312 "/></g></g></svg>